<?xml version="1.0" encoding="utf-8"?>
<!-- Generator: Adobe Illustrator 18.1.1, SVG Export Plug-In . SVG Version: 6.00 Build 0)  -->
<svg version="1.1" id="Layer_1" xmlns="http://www.w3.org/2000/svg" xmlns:xlink="http://www.w3.org/1999/xlink" x="0px" y="0px"
	 viewBox="0 0 80 80" enable-background="new 0 0 80 80" xml:space="preserve">
<g id="Shape_93">
	<g>
		<rect x="0" y="0" fill="#F2695B" width="80" height="80"/>
	</g>
</g>
<g id="Logo">
	<g>
		<path fill="#FFFFFF" d="M21,32.7h-0.5c-2.4,0-4.5,2-4.5,4.5v14.6c0,2.4,2,4.5,4.5,4.5c0,0,0.4,0,0.5,0c2.5,0,4.5-2,4.5-4.5
			c0-0.5,0-28.5,0-28.5H21V32.7z M21.3,51.8h-1V37.3h1V51.8z M31,32.7h-0.5c-2.5,0-4.5,2.1-4.5,4.6v14.6c0,2.4,2,4.5,4.5,4.5H31
			c2.5,0,4.5-2.1,4.5-4.6V37.2C35.5,34.7,33.5,32.7,31,32.7z M31.2,51.8h-1V37.2h1V51.8z M41,32.7h-0.5v-9.5H36c0,0,0,28.1,0,28.5
			c0,2.5,2,4.5,4.5,4.5c0.2,0,0.6,0,0.6,0c2.4,0,4.4-2,4.4-4.4V37.2C45.4,34.8,43.5,32.7,41,32.7z M41.2,51.8h-1V37.2h1V51.8z
			 M51.2,32.6h-0.5c-2.5,0-4.5,2.1-4.5,4.6v14.6c0,2.4,2,4.5,4.5,4.5h0.5c2.5,0,4.5-2.1,4.5-4.6V37.2C55.7,34.7,53.7,32.6,51.2,32.6
			z M51.4,51.8h-1V37.2h1V51.8z M64,37.2v-4.5h-3.6v-5h-4.2v24.1c0,2.4,1.7,4.4,4.2,4.4H64v-4.5h-3.6V37.2H64z"/>
	</g>
</g>
</svg>
